<svg version="1.2" xmlns="http://www.w3.org/2000/svg" viewBox="0 0 404 173" width="404" height="173">
	<title>tic-tac-dark</title>
	<style>
		.s0 { fill: #ffffff } 
		.s1 { fill: #5faf59 } 
	</style>
	<path fill-rule="evenodd" class="s0" d="m192.65 163.53l-0.4 2.39q-2.71-0.06-3.84-1.13-1.13-1.07-1.13-3.34v-19.09l2.93-0.49v19.12q-0.01 0.71 0.12 1.17 0.13 0.46 0.41 0.73 0.28 0.28 0.75 0.41 0.47 0.14 1.16 0.23zm-56.75-16.7q0.79 0 1.34-0.51 0.55-0.5 0.55-1.36 0-0.86-0.55-1.36-0.55-0.51-1.34-0.51-0.78 0-1.33 0.51-0.55 0.5-0.55 1.36 0 0.86 0.55 1.36 0.55 0.51 1.33 0.51zm-122.85 17.74q-2.09 1.5-5.89 1.5-1.29 0-2.37-0.17-1.08-0.16-1.93-0.39-0.85-0.23-1.46-0.49-0.61-0.26-0.96-0.45l0.91-2.44q0.72 0.39 2.2 0.88 1.48 0.49 3.61 0.49 4.77 0 4.77-3.18 0-0.98-0.42-1.67-0.42-0.69-1.15-1.19-0.72-0.5-1.64-0.87-0.93-0.37-1.97-0.74-1.19-0.39-2.26-0.9-1.07-0.5-1.85-1.19-0.79-0.69-1.24-1.64-0.46-0.95-0.46-2.29 0-2.79 1.95-4.35 1.95-1.56 5.37-1.56 1.98 0 3.6 0.41 1.61 0.42 2.37 0.91l-0.98 2.41q-0.66-0.39-1.96-0.78-1.3-0.38-3.03-0.38-0.88 0-1.63 0.18-0.76 0.19-1.32 0.55-0.57 0.37-0.9 0.94-0.33 0.56-0.33 1.33 0 0.86 0.35 1.44 0.35 0.58 0.97 1.02 0.63 0.45 1.46 0.81 0.84 0.37 1.84 0.74 1.41 0.55 2.59 1.1 1.18 0.55 2.04 1.31 0.87 0.77 1.34 1.83 0.47 1.05 0.47 2.55 0 2.79-2.09 4.28zm8.3-12.39v13.43h-2.92v-15.45q1-0.24 2.65-0.52 1.65-0.27 3.82-0.27 1.57 0 2.63 0.41 1.07 0.41 1.79 1.21 0.22-0.15 0.69-0.43 0.48-0.27 1.17-0.53 0.69-0.27 1.54-0.46 0.84-0.2 1.82-0.2 1.88 0 3.07 0.53 1.2 0.54 1.87 1.52 0.68 0.98 0.91 2.32 0.24 1.35 0.24 2.94v8.93h-2.92v-8.32q0-1.41-0.14-2.42-0.14-1.01-0.54-1.68-0.39-0.67-1.06-0.99-0.68-0.32-1.75-0.32-1.47 0-2.43 0.38-0.96 0.38-1.3 0.69 0.25 0.79 0.37 1.74 0.13 0.95 0.13 1.99v8.93h-2.92v-8.32q0-1.41-0.16-2.42-0.16-1.01-0.55-1.68-0.39-0.67-1.07-0.99-0.67-0.32-1.71-0.32-0.44 0-0.94 0.03-0.5 0.03-0.96 0.07-0.45 0.05-0.83 0.11-0.38 0.06-0.5 0.09zm29.1 13.77q0.97 0 1.96-0.08 0.99-0.07 1.84-0.16 0.85-0.1 1.52-0.2 0.68-0.11 1.05-0.17v-9.94q0-1.35-0.31-2.47-0.31-1.12-1.05-1.93-0.74-0.81-1.95-1.25-1.21-0.44-2.97-0.44-1.54 0-2.85 0.22-1.32 0.23-1.89 0.48l0.35 2.36q0.53-0.22 1.61-0.42 1.09-0.2 2.53-0.2 1.13 0 1.84 0.32 0.71 0.33 1.11 0.86 0.41 0.54 0.57 1.23 0.16 0.68 0.16 1.39v0.79q-0.13-0.03-0.44-0.09-0.32-0.06-0.74-0.14-0.43-0.07-0.9-0.12-0.47-0.04-0.91-0.05-1.38 0-2.63 0.28-1.26 0.28-2.2 0.86-0.94 0.58-1.49 1.53-0.55 0.95-0.55 2.26 0 1.38 0.47 2.36 0.47 0.98 1.32 1.57 0.84 0.6 2.01 0.88 1.16 0.27 2.54 0.27zm-2.39-2.98q1.01 0.59 2.73 0.59 1.04 0 1.84-0.04 0.8-0.05 1.34-0.17v-4.74q-0.32-0.16-1.02-0.26-0.71-0.11-1.72-0.11-0.66 0-1.39 0.09-0.74 0.09-1.35 0.39-0.62 0.29-1.02 0.79-0.41 0.51-0.41 1.33 0 1.53 1 2.13zm16.32 2.64v-13.37q0.26-0.06 1.06-0.23 0.8-0.17 1.61-0.17 1.26 0 2.06 0.17 0.8 0.17 1.15 0.29l0.5-2.47q-0.19-0.07-0.58-0.14-0.39-0.08-0.87-0.16-0.47-0.07-0.95-0.12-0.49-0.04-0.87-0.04-1.91 0-3.45 0.32-1.54 0.32-2.58 0.69v15.23zm17.02 0.02q-1.1 0.32-2.52 0.32-1.66 0-2.74-0.41-1.09-0.42-1.75-1.24-0.66-0.83-0.92-2.04-0.27-1.2-0.27-2.8v-14.19l2.92-0.49v4.92h6.19v2.39h-6.19v7.34q0 1.2 0.19 1.98 0.19 0.78 0.56 1.22 0.38 0.44 0.95 0.63 0.56 0.18 1.31 0.18 1.32 0 2.12-0.29 0.81-0.29 1.12-0.41l0.56 2.35q-0.44 0.22-1.53 0.54zm17.5 0.26q2.2 0 3.9-0.78 1.69-0.78 2.98-2.04 0.6 0.65 1.15 1.29 0.55 0.64 0.92 1.25h3.08q-0.6-1.07-1.52-2.2-0.93-1.13-2.03-2.29 0.94-1.47 1.46-2.96 0.52-1.48 0.64-2.73l-2.41-0.31q-0.32 2.36-1.38 4.28l-5.09-5.05q0.88-0.45 1.66-1.04 0.79-0.58 1.4-1.28 0.61-0.7 0.97-1.56 0.36-0.86 0.36-1.93 0-0.95-0.34-1.8-0.35-0.86-1.02-1.47-0.68-0.62-1.67-0.98-0.99-0.37-2.24-0.37-1.23 0-2.25 0.37-1.02 0.36-1.75 1.04-0.74 0.67-1.17 1.65-0.42 0.98-0.42 2.2 0 2.42 2.32 4.69-0.91 0.42-1.76 0.99-0.84 0.57-1.49 1.32-0.64 0.75-1.02 1.68-0.37 0.93-0.37 2.12 0 0.95 0.34 1.99 0.35 1.04 1.18 1.92 0.83 0.87 2.18 1.43 1.35 0.57 3.39 0.57zm-2.04-16.92q0 1.99 2.14 3.88 0.69-0.33 1.3-0.73 0.61-0.4 1.07-0.92 0.45-0.52 0.72-1.14 0.27-0.63 0.27-1.43 0-1.04-0.71-1.76-0.71-0.72-1.93-0.72-1.38 0-2.12 0.82-0.74 0.81-0.74 2zm2.11 14.56q-1.2 0-2-0.35-0.8-0.35-1.3-0.89-0.5-0.53-0.72-1.17-0.22-0.65-0.22-1.2 0-0.98 0.29-1.71 0.3-0.73 0.77-1.27 0.47-0.54 1.06-0.9 0.58-0.37 1.14-0.64l6.13 6.02q-1.01 1.01-2.31 1.56-1.31 0.55-2.84 0.55zm30.27 1.32q-1.68 1.13-4.79 1.13-2.17 0-3.39-0.35-1.23-0.35-1.67-0.54l0.54-2.44q0.5 0.18 1.6 0.55 1.1 0.36 2.92 0.36 1.79 0 2.65-0.46 0.87-0.45 0.87-1.46 0-1.04-0.85-1.66-0.85-0.61-2.8-1.37-0.94-0.37-1.8-0.75-0.87-0.38-1.49-0.9-0.63-0.53-1.01-1.26-0.38-0.73-0.38-1.8 0-2.12 1.6-3.36 1.61-1.23 4.37-1.23 0.69 0 1.38 0.07 0.69 0.08 1.29 0.19 0.6 0.1 1.05 0.22 0.46 0.13 0.71 0.22l-0.54 2.45q-0.47-0.25-1.47-0.51-1.01-0.26-2.42-0.26-1.22 0-2.14 0.48-0.91 0.47-0.91 1.48 0 0.52 0.21 0.92 0.2 0.4 0.63 0.72 0.42 0.32 1.05 0.59 0.63 0.28 1.51 0.59 1.16 0.42 2.07 0.84 0.91 0.41 1.55 0.96 0.65 0.55 0.99 1.33 0.35 0.78 0.35 1.91 0 2.21-1.68 3.34zm8.14-15.15v15.91h-2.92v-15.91zm7.75 15.91v-13.43q0.12-0.03 0.5-0.09 0.38-0.06 0.83-0.11 0.46-0.04 0.96-0.07 0.5-0.03 0.94-0.03 1.04 0 1.71 0.32 0.68 0.32 1.07 0.99 0.39 0.67 0.55 1.68 0.16 1.01 0.16 2.42v8.32h2.92v-8.93q0-1.04-0.13-1.99-0.12-0.95-0.38-1.74 0.35-0.31 1.31-0.69 0.96-0.38 2.43-0.38 1.07 0 1.74 0.32 0.68 0.32 1.07 0.99 0.39 0.67 0.54 1.68 0.14 1.01 0.14 2.42v8.32h2.92v-8.93q0-1.59-0.24-2.94-0.23-1.34-0.91-2.32-0.67-0.98-1.87-1.52-1.19-0.53-3.07-0.53-0.98 0-1.83 0.2-0.84 0.19-1.53 0.46-0.7 0.26-1.17 0.53-0.47 0.28-0.69 0.43-0.72-0.8-1.79-1.21-1.07-0.41-2.64-0.41-2.16 0-3.81 0.27-1.65 0.28-2.65 0.52v15.45zm26.84-0.7v6.37h-2.92v-21.09q1.03-0.24 2.59-0.53 1.55-0.29 3.59-0.29 1.89 0 3.39 0.58 1.51 0.58 2.58 1.65 1.07 1.07 1.65 2.62 0.58 1.54 0.58 3.47 0 1.8-0.49 3.34-0.49 1.53-1.43 2.63-0.94 1.1-2.31 1.71-1.36 0.61-3.12 0.61-1.41 0-2.5-0.37-1.08-0.36-1.61-0.7zm3.73-1.44q-1.19 0-2.2-0.4-1-0.39-1.53-0.82v-10.04q0.44-0.12 1.17-0.21 0.74-0.09 2.06-0.09 2.36 0 3.77 1.5 1.41 1.49 1.41 4.28 0 1.22-0.25 2.28-0.25 1.06-0.82 1.84-0.56 0.77-1.46 1.22-0.89 0.44-2.15 0.44zm27.34 2.51q1.7 0 3.03-0.3 1.33-0.31 1.87-0.59l-0.41-2.38q-0.53 0.24-1.59 0.5-1.05 0.26-2.59 0.26-2.73 0-4.02-1.28-1.28-1.29-1.47-3.77h11.18q0.03-0.24 0.03-0.53v-0.48q0-4.1-1.76-6.1-1.76-2-5.06-2-1.41 0-2.76 0.52-1.35 0.52-2.39 1.56-1.03 1.04-1.66 2.61-0.63 1.58-0.63 3.69 0 1.81 0.49 3.32 0.48 1.51 1.49 2.62 1 1.1 2.56 1.72 1.55 0.63 3.69 0.63zm-5.12-9.85h8.1q0.03-1.93-0.99-3.17-1.02-1.24-2.81-1.24-1 0-1.77 0.38-0.77 0.39-1.31 1-0.53 0.61-0.83 1.41-0.3 0.79-0.39 1.62zm27.71 9.82q1.42 0 2.51-0.32 1.1-0.32 1.54-0.54l-0.56-2.35q-0.32 0.12-1.12 0.41-0.8 0.29-2.12 0.29-0.75 0-1.32-0.18-0.56-0.19-0.94-0.63-0.37-0.44-0.56-1.22-0.19-0.78-0.19-1.98v-7.34h6.19v-2.39h-6.19v-4.92l-2.92 0.49v14.19q0 1.6 0.27 2.8 0.26 1.21 0.92 2.04 0.66 0.82 1.74 1.24 1.09 0.41 2.75 0.41zm9.71-19.63q-0.55 0.51-1.33 0.51-0.79 0-1.34-0.51-0.54-0.5-0.55-1.36 0.01-0.86 0.55-1.36 0.55-0.51 1.34-0.51 0.78 0 1.33 0.51 0.55 0.5 0.55 1.36 0 0.86-0.55 1.36zm0.14 19.29v-15.91h-2.92v15.91zm7.75-13.43v13.43h-2.92v-15.45q1.01-0.24 2.66-0.52 1.65-0.27 3.81-0.27 1.57 0 2.64 0.41 1.07 0.41 1.79 1.21 0.22-0.15 0.69-0.43 0.47-0.27 1.16-0.53 0.69-0.27 1.54-0.46 0.85-0.2 1.82-0.2 1.89 0 3.08 0.53 1.19 0.54 1.87 1.52 0.67 0.98 0.91 2.32 0.23 1.35 0.23 2.94v8.93h-2.92v-8.32q0-1.41-0.14-2.42-0.14-1.01-0.53-1.68-0.39-0.67-1.07-0.99-0.67-0.32-1.74-0.32-1.48 0-2.44 0.38-0.95 0.38-1.3 0.69 0.25 0.79 0.38 1.74 0.12 0.95 0.12 1.99v8.93h-2.92v-8.32q0-1.41-0.15-2.42-0.16-1.01-0.55-1.68-0.4-0.67-1.07-0.99-0.68-0.32-1.71-0.32-0.44 0-0.94 0.03-0.51 0.03-0.96 0.07-0.46 0.05-0.83 0.11-0.38 0.06-0.51 0.09zm31.24 13.8q1.7 0 3.03-0.3 1.34-0.31 1.87-0.59l-0.41-2.38q-0.53 0.24-1.58 0.5-1.06 0.26-2.6 0.26-2.73 0-4.01-1.28-1.29-1.29-1.48-3.77h11.18q0.03-0.24 0.03-0.53v-0.48q0-4.1-1.76-6.1-1.76-2-5.05-2-1.42 0-2.77 0.52-1.35 0.52-2.38 1.56-1.04 1.04-1.67 2.61-0.63 1.58-0.63 3.69 0 1.81 0.49 3.32 0.49 1.51 1.49 2.62 1.01 1.1 2.56 1.72 1.56 0.63 3.69 0.63zm-5.12-9.85h8.1q0.04-1.93-0.99-3.17-1.02-1.24-2.81-1.24-1 0-1.77 0.38-0.77 0.39-1.3 1-0.54 0.61-0.84 1.41-0.29 0.79-0.39 1.62zm21.22 1.65v-2.66h-7.75v2.66zm11.14 7.85q-1.1 0.32-2.52 0.32-1.66 0-2.74-0.41-1.09-0.42-1.75-1.24-0.66-0.83-0.92-2.04-0.27-1.2-0.27-2.8v-14.19l2.92-0.49v4.92h6.19v2.39h-6.19v7.34q0 1.2 0.19 1.98 0.19 0.78 0.56 1.22 0.38 0.44 0.95 0.63 0.56 0.18 1.31 0.18 1.32 0 2.12-0.29 0.8-0.29 1.12-0.41l0.56 2.35q-0.44 0.22-1.53 0.54zm7.34-0.02v-13.37q0.25-0.06 1.05-0.23 0.8-0.17 1.61-0.17 1.26 0 2.06 0.17 0.8 0.17 1.15 0.29l0.5-2.47q-0.19-0.07-0.58-0.14-0.39-0.08-0.86-0.16-0.48-0.07-0.96-0.12-0.49-0.04-0.87-0.04-1.91 0-3.45 0.32-1.54 0.32-2.58 0.69v15.23zm16.15 0.26q-0.99 0.08-1.96 0.08-1.38 0-2.54-0.27-1.16-0.28-2.01-0.88-0.85-0.59-1.32-1.57-0.47-0.98-0.47-2.36 0-1.31 0.55-2.26 0.55-0.95 1.49-1.53 0.94-0.58 2.2-0.86 1.25-0.28 2.63-0.28 0.44 0.01 0.91 0.05 0.48 0.05 0.9 0.12 0.42 0.08 0.74 0.14 0.31 0.06 0.44 0.09v-0.79q0-0.71-0.16-1.4-0.16-0.68-0.57-1.22-0.4-0.53-1.11-0.86-0.71-0.32-1.84-0.32-1.44 0-2.52 0.2-1.09 0.2-1.62 0.42l-0.35-2.36q0.57-0.25 1.89-0.48 1.32-0.22 2.85-0.22 1.76 0 2.97 0.44 1.21 0.44 1.95 1.25 0.74 0.81 1.05 1.93 0.32 1.12 0.31 2.47v9.94q-0.37 0.06-1.05 0.17-0.67 0.1-1.52 0.2-0.85 0.09-1.84 0.16zm-1.61-2.31q-1.73 0-2.74-0.59-1-0.6-1-2.13 0-0.82 0.41-1.33 0.41-0.5 1.02-0.8 0.61-0.29 1.35-0.38 0.74-0.09 1.4-0.09 1 0 1.71 0.11 0.7 0.1 1.02 0.26v4.74q-0.54 0.12-1.34 0.17-0.8 0.04-1.83 0.04zm19.06 2.34q-0.67 0.08-1.3 0.08-1.98 0-3.47-0.61-1.49-0.61-2.51-1.71-1.02-1.1-1.52-2.62-0.51-1.52-0.51-3.35 0-1.84 0.55-3.37 0.55-1.53 1.56-2.64 1-1.12 2.46-1.75 1.46-0.62 3.25-0.62 1.1 0 2.2 0.18 1.1 0.18 2.11 0.58l-0.66 2.42q-0.66-0.31-1.53-0.49-0.86-0.19-1.83-0.19-2.45 0.01-3.76 1.5-1.3 1.5-1.3 4.38 0 1.28 0.3 2.36 0.3 1.07 0.94 1.83 0.64 0.77 1.65 1.18 1 0.41 2.45 0.41 1.16 0 2.1-0.21 0.94-0.21 1.48-0.46l0.41 2.39q-0.25 0.15-0.73 0.29-0.47 0.13-1.06 0.24-0.6 0.11-1.28 0.18zm8.93-0.29v-7.65q0.88 0.59 1.85 1.44 0.98 0.86 1.92 1.88 0.94 1.03 1.8 2.15 0.87 1.11 1.53 2.18h3.42q-0.63-1.07-1.54-2.31-0.91-1.24-1.93-2.44-1.02-1.21-2.07-2.25-1.05-1.04-2-1.75 0.82-0.82 1.75-1.76 0.92-0.93 1.83-1.86 0.91-0.94 1.76-1.85 0.85-0.92 1.57-1.69h-3.42q-0.57 0.65-1.35 1.49-0.79 0.84-1.67 1.76-0.87 0.92-1.79 1.8l-1.66 1.62v-14.5l-2.92 0.49v23.25zm16.05-19.29q-0.54 0.51-1.33 0.51-0.78 0-1.33-0.51-0.55-0.5-0.55-1.36 0-0.86 0.55-1.36 0.55-0.51 1.33-0.51 0.79 0 1.33 0.51 0.55 0.5 0.55 1.36 0 0.86-0.55 1.36zm0.15 19.29v-15.91h-2.92v15.91zm7.74-13.43v13.43h-2.92v-15.45q1.01-0.24 2.67-0.52 1.67-0.27 3.83-0.27 1.95 0 3.24 0.53 1.29 0.54 2.05 1.5 0.77 0.97 1.09 2.31 0.31 1.35 0.31 2.97v8.93h-2.92v-8.32q0-1.47-0.2-2.51-0.21-1.04-0.68-1.68-0.47-0.64-1.25-0.93-0.79-0.29-1.95-0.29-0.47 0-0.97 0.03-0.51 0.03-0.96 0.07-0.46 0.05-0.82 0.11-0.36 0.06-0.52 0.09zm20.19 19.19q3.95 0 5.9-1.66 1.95-1.65 1.95-5.32v-14.2q-1.04-0.24-2.56-0.53-1.52-0.29-3.57-0.29-1.85 0-3.32 0.59-1.48 0.6-2.5 1.66-1.02 1.05-1.55 2.5-0.54 1.46-0.54 3.2 0 1.99 0.57 3.43 0.56 1.44 1.54 2.4 0.97 0.97 2.27 1.42 1.3 0.46 2.78 0.46 1.45 0 2.53-0.38 1.08-0.38 1.46-0.63v0.68q0 2.2-1.15 3.21-1.14 1.01-3.75 1.01-1.38 0-2.65-0.26-1.28-0.26-2.15-0.6l-0.54 2.48q1.01 0.34 2.37 0.58 1.37 0.25 2.91 0.25zm-0.4-9.09q0.81 0.3 1.65 0.31 1.17-0.01 2.14-0.33 0.97-0.32 1.54-0.75v-9.3q-0.44-0.12-1.18-0.23-0.74-0.1-1.99-0.1-2.36 0-3.63 1.49-1.27 1.5-1.27 3.98 0 1.38 0.36 2.36 0.36 0.98 0.97 1.62 0.62 0.64 1.41 0.95z"/>
	<path fill-rule="evenodd" class="s0" d="m235.56 28.88c-1.99 3.67-4.83 8.44-6.45 11.15 3.85 6.75 6.06 14.57 6.06 22.9 0 25.55-20.71 46.26-46.27 46.26-25.55 0-46.26-20.71-46.26-46.26 0-25.54 20.71-46.26 46.27-46.26 7 0 13.64 1.56 19.59 4.35 1.7-2.92 4.14-7.05 5.79-10.01-7.76-3.82-16.49-5.98-25.73-5.98-32.16 0-58.22 26.07-58.22 58.23 0 32.16 26.06 58.23 58.22 58.23 32.16 0 58.23-26.07 58.23-58.23 0-12.86-4.17-24.74-11.23-34.38z"/>
	<path fill-rule="evenodd" class="s1" d="m230.93 0.56l-41.51 73.16-21.55-37.01h-15.14l21.98 37.75h14.29 9.15l41.92-73.9z"/>
	<path fill-rule="evenodd" class="s0" d="m118.26 108.54c1.65 2.66 3.03 5.19 4.15 7.38h-16.92c-1.05-1.73-2.25-3.74-3.6-5.84q-2.02-3.14-4.28-6.28-2.27-3.14-4.78-6.03c-1.68-1.93-3.55-3.55-5.19-4.88v23.03h-14.81v-74.91l14.81-2.38v43.66c1.45-1.59 3.15-3.23 4.7-4.95q2.31-2.57 4.48-5.09 2.18-2.52 4.1-4.8c1.28-1.51 2.38-2.62 3.3-3.75h17.5c-3.49 4.04-6.9 7.69-10.22 11.36q-4.99 5.51-10.91 11.36 2.96 2.7 6.12 6.43 3.16 3.74 6.12 7.72 2.96 3.99 5.43 7.97zm-73.4-44.84h14.81v52.22h-14.81zm-12.03 39.09l2.07 11.54q-2.66 1.09-5.92 1.89-3.26 0.79-8 0.79-6.03 0-9.97-1.64-3.95-1.64-6.32-4.58-2.37-2.93-3.31-7.11-0.94-4.18-0.94-9.25v-43.97l14.83-2.38v15.62h17.25v12.44h-17.25v18.09c0 3.12 0.43 5.61 1.51 7.46q1.63 2.79 6.57 2.79 2.37 0 4.89-0.45 2.51-0.45 4.59-1.24zm370.73 13.13h-16.92c-1.05-1.73-2.25-3.74-3.6-5.84q-2.02-3.14-4.29-6.28-2.26-3.14-4.77-6.03c-1.68-1.93-3.29-3.56-4.93-4.89v23.04h-14.76v-74.91l14.76-2.38v43.65c1.45-1.58 2.89-3.23 4.44-4.94q2.31-2.57 4.49-5.09 2.17-2.53 4.09-4.8c1.28-1.51 2.38-2.63 3.3-3.75h17.5c-3.49 4.04-6.9 7.69-10.22 11.36q-4.99 5.51-10.91 11.36 2.96 2.69 6.12 6.43 3.16 3.74 6.12 7.72 2.96 3.99 5.43 7.97c1.65 2.66 3.03 5.19 4.15 7.38zm-63.54-41.28q1.09 3.98 1.09 8.85v30.84q-3.16 0.69-8.79 1.64-5.63 0.94-13.62 0.94-5.04 0-9.14-0.89-4.09-0.9-7.06-2.94-2.96-2.04-4.54-5.32-1.58-3.28-1.58-8.06 0-4.57 1.83-7.76 1.82-3.18 4.89-5.07 3.05-1.89 7.01-2.73 3.94-0.85 8.19-0.85 2.87 0 5.09 0.25 2.22 0.25 3.6 0.64v-1.39q0-3.78-2.27-6.07-2.27-2.28-7.9-2.28-3.75 0-7.4 0.54-3.66 0.55-6.32 1.55l-1.88-11.94q1.28-0.4 3.21-0.85 1.92-0.44 4.2-0.79 2.27-0.35 4.78-0.6 2.52-0.25 5.09-0.25 6.52 0 10.86 1.49 4.34 1.5 6.96 4.28 2.62 2.79 3.7 6.77zm-12.93 19.19q-0.88-0.19-2.66-0.39-1.78-0.2-3.26-0.2-2.07 0-3.9 0.25-1.83 0.24-3.21 0.94-1.38 0.7-2.17 1.89-0.79 1.19-0.79 2.98 0 3.49 2.32 4.83 2.32 1.34 6.37 1.34 2.17 0 4.14-0.1 1.98-0.1 3.16-0.3zm-39.35 8.96l2.07 11.54q-2.66 1.09-5.93 1.89-3.25 0.79-7.99 0.79-6.03 0-9.97-1.64-3.95-1.64-6.32-4.58-2.37-2.93-3.31-7.11c-0.63-2.78-0.79-5.87-0.79-9.25v-43.97l14.82-2.38v15.62h17.31v12.44h-17.31v18.09c0 3.12 0.29 5.61 1.37 7.46q1.63 2.79 6.57 2.79 2.37 0 4.89-0.45 2.51-0.45 4.59-1.24z"/>
	<path fill-rule="evenodd" class="s1" d="m51.95 40.87c-4.95 0-8.96 4.01-8.96 8.96 0 4.94 4.01 8.95 8.96 8.95 4.95 0 8.96-4.01 8.96-8.95 0-4.95-4.01-8.96-8.96-8.96z"/>
</svg>